{"scene":0,"scenes":[{"nodes":[0],"extras":{"title":"Realistic Mahi-mahi (Coryphaena hippurus)","author":"Generated for user by OpenAI","units":"meters","approx_length_m":1.26,"license":"User may use and modify this generated model."}}],"asset":{"version":"2.0","generator":"https://github.com/mikedh/trimesh"},"accessors":[{"componentType":5125,"type":"SCALAR","bufferView":0,"count":41472,"max":[6913],"min":[0]},{"componentType":5126,"type":"VEC3","byteOffset":0,"bufferView":1,"count":6914,"max":[1.6200000047683716,0.3898050785064697,0.8465686440467834],"min":[-1.6799999475479126,-0.3898050785064697,-0.5597118735313416]},{"componentType":5126,"type":"VEC2","byteOffset":0,"bufferView":3,"count":6914,"max":[1.0,1.0],"min":[0.0,0.013888888992369175]},{"componentType":5125,"type":"SCALAR","bufferView":4,"count":180,"max":[31],"min":[0]},{"componentType":5126,"type":"VEC3","byteOffset":0,"bufferView":5,"count":32,"max":[1.5,0.017999999225139618,1.0800000429153442],"min":[-1.4800000190734863,-0.017999999225139618,0.17000000178813934]},{"componentType":5126,"type":"VEC2","byteOffset":0,"bufferView":7,"count":32,"max":[1.0,1.0],"min":[0.0,0.0]},{"componentType":5125,"type":"SCALAR","bufferView":8,"count":108,"max":[19],"min":[0]},{"componentType":5126,"type":"VEC3","byteOffset":0,"bufferView":9,"count":20,"max":[1.5,0.014999999664723873,-0.14000000059604645],"min":[-0.019999999552965164,-0.014999999664723873,-0.7099999785423279]},{"componentType":5126,"type":"VEC2","byteOffset":0,"bufferView":10,"count":20,"max":[1.0,1.0],"min":[0.0,0.0]},{"componentType":5125,"type":"SCALAR","bufferView":11,"count":96,"max":[17],"min":[0]},{"componentType":5126,"type":"VEC3","byteOffset":0,"bufferView":12,"count":18,"max":[2.1600000858306885,0.027499999850988388,0.8199999928474426],"min":[1.4800000190734863,-0.027499999850988388,-0.7400000095367432]},{"componentType":5126,"type":"VEC2","byteOffset":0,"bufferView":13,"count":18,"max":[1.0,1.0],"min":[0.0,0.0]},{"componentType":5125,"type":"SCALAR","bufferView":14,"count":36,"max":[7],"min":[0]},{"componentType":5126,"type":"VEC3","byteOffset":0,"bufferView":15,"count":8,"max":[0.019999999552965164,-0.3499999940395355,0.05900000035762787],"min":[-1.0199999809265137,-0.8600000143051147,-0.36899998784065247]},{"componentType":5126,"type":"VEC2","byteOffset":0,"bufferView":16,"count":8,"max":[1.0,1.0],"min":[0.0,0.0]},{"componentType":5125,"type":"SCALAR","bufferView":17,"count":36,"max":[7],"min":[0]},{"componentType":5126,"type":"VEC3","byteOffset":0,"bufferView":18,"count":8,"max":[0.18000000715255737,-0.10000000149011612,-0.4740000069141388],"min":[-0.550000011920929,-0.3700000047683716,-0.6859999895095825]},{"componentType":5126,"type":"VEC2","byteOffset":0,"bufferView":19,"count":8,"max":[1.0,1.0],"min":[0.0,0.0]},{"componentType":5126,"type":"VEC3","byteOffset":0,"bufferView":20,"count":8,"max":[0.019999999552965164,0.8600000143051147,0.05900000035762787],"min":[-1.0199999809265137,0.3499999940395355,-0.36899998784065247]},{"componentType":5126,"type":"VEC3","byteOffset":0,"bufferView":21,"count":8,"max":[0.18000000715255737,0.3700000047683716,-0.4740000069141388],"min":[-0.550000011920929,0.10000000149011612,-0.6859999895095825]},{"componentType":5125,"type":"SCALAR","bufferView":22,"count":3840,"max":[641],"min":[0]},{"componentType":5126,"type":"VEC3","byteOffset":0,"bufferView":23,"count":642,"max":[-1.350000023841858,-0.3319999873638153,0.38999998569488525],"min":[-1.5099999904632568,-0.39800000190734863,0.23000000417232513]},{"componentType":5126,"type":"VEC3","byteOffset":0,"bufferView":24,"count":642,"max":[-1.4119999408721924,-0.375,0.3619999885559082],"min":[-1.4980000257492065,-0.41100001335144043,0.2680000066757202]},{"componentType":5126,"type":"VEC3","byteOffset":0,"bufferView":25,"count":642,"max":[-1.350000023841858,0.39800000190734863,0.38999998569488525],"min":[-1.5099999904632568,0.3319999873638153,0.23000000417232513]},{"componentType":5126,"type":"VEC3","byteOffset":0,"bufferView":26,"count":642,"max":[-1.4119999408721924,0.41100001335144043,0.3619999885559082],"min":[-1.4980000257492065,0.375,0.2680000066757202]},{"componentType":5125,"type":"SCALAR","bufferView":27,"count":144,"max":[25],"min":[0]},{"componentType":5126,"type":"VEC3","byteOffset":0,"bufferView":28,"count":26,"max":[-1.527646780014038,-0.2761915624141693,-0.15009111166000366],"min":[-1.6773532629013062,-0.3248084485530853,-0.18990889191627502]},{"componentType":5126,"type":"VEC3","byteOffset":0,"bufferView":29,"count":26,"max":[-1.348039984703064,-0.3051348328590393,-0.15005992352962494],"min":[-1.5319600105285645,-0.354865163564682,-0.18994006514549255]},{"componentType":5126,"type":"VEC3","byteOffset":0,"bufferView":30,"count":26,"max":[-1.1965141296386719,-0.3351259231567383,-0.10050366073846817],"min":[-1.3534858226776123,-0.3798740804195404,-0.1694963425397873]},{"componentType":5126,"type":"VEC3","byteOffset":0,"bufferView":31,"count":26,"max":[-1.0727406740188599,-0.3705277144908905,0.4218425452709198],"min":[-1.1372593641281128,-0.39947226643562317,0.21815744042396545]},{"componentType":5126,"type":"VEC3","byteOffset":0,"bufferView":32,"count":26,"max":[-1.0326499938964844,-0.3845073878765106,0.22147738933563232],"min":[-1.0873500108718872,-0.4064926207065582,0.01852261647582054]},{"componentType":5126,"type":"VEC3","byteOffset":0,"bufferView":33,"count":26,"max":[-0.9135735630989075,-0.3825073540210724,0.023863213136792183],"min":[-1.0464264154434204,-0.4064926207065582,-0.18386320769786835]},{"componentType":5126,"type":"VEC3","byteOffset":0,"bufferView":34,"count":26,"max":[-0.7756860256195068,-0.3575859069824219,-0.17387452721595764],"min":[-0.9243139624595642,-0.39741408824920654,-0.2861254811286926]},{"componentType":5126,"type":"VEC3","byteOffset":0,"bufferView":35,"count":26,"max":[-0.29970625042915344,-0.3605029582977295,0.05449332669377327],"min":[-0.850293755531311,-0.3894970417022705,0.01550667267292738]},{"componentType":5126,"type":"VEC3","byteOffset":0,"bufferView":36,"count":26,"max":[0.3004031479358673,-0.3155125677585602,0.024494409561157227],"min":[-0.3004031479358673,-0.3694874346256256,-0.01449440885335207]},{"componentType":5126,"type":"VEC3","byteOffset":0,"bufferView":37,"count":26,"max":[0.8505281209945679,-0.2505311071872711,-0.005500183906406164],"min":[0.2994718849658966,-0.3244689106941223,-0.01949981600046158]},{"componentType":5126,"type":"VEC3","byteOffset":0,"bufferView":38,"count":26,"max":[1.2708925008773804,-0.16558940708637238,-0.00550030916929245],"min":[0.8491074442863464,-0.2594105899333954,-0.01949969120323658]},{"componentType":5126,"type":"VEC3","byteOffset":0,"bufferView":39,"count":26,"max":[-1.527646780014038,0.3248084485530853,-0.15009111166000366],"min":[-1.6773532629013062,0.2761915624141693,-0.18990889191627502]},{"componentType":5126,"type":"VEC3","byteOffset":0,"bufferView":40,"count":26,"max":[-1.348039984703064,0.354865163564682,-0.15005992352962494],"min":[-1.5319600105285645,0.3051348328590393,-0.18994006514549255]},{"componentType":5126,"type":"VEC3","byteOffset":0,"bufferView":41,"count":26,"max":[-1.1965141296386719,0.3798740804195404,-0.10050366073846817],"min":[-1.3534858226776123,0.3351259231567383,-0.1694963425397873]},{"componentType":5126,"type":"VEC3","byteOffset":0,"bufferView":42,"count":26,"max":[-1.0727406740188599,0.39947226643562317,0.4218425452709198],"min":[-1.1372593641281128,0.3705277144908905,0.21815744042396545]},{"componentType":5126,"type":"VEC3","byteOffset":0,"bufferView":43,"count":26,"max":[-1.0326499938964844,0.4064926207065582,0.22147738933563232],"min":[-1.0873500108718872,0.3845073878765106,0.01852261647582054]},{"componentType":5126,"type":"VEC3","byteOffset":0,"bufferView":44,"count":26,"max":[-0.9135735630989075,0.4064926207065582,0.023863213136792183],"min":[-1.0464264154434204,0.3825073540210724,-0.18386320769786835]},{"componentType":5126,"type":"VEC3","byteOffset":0,"bufferView":45,"count":26,"max":[-0.7756860256195068,0.39741408824920654,-0.17387452721595764],"min":[-0.9243139624595642,0.3575859069824219,-0.2861254811286926]},{"componentType":5126,"type":"VEC3","byteOffset":0,"bufferView":46,"count":26,"max":[-0.29970625042915344,0.3894970417022705,0.05449332669377327],"min":[-0.850293755531311,0.3605029582977295,0.01550667267292738]},{"componentType":5126,"type":"VEC3","byteOffset":0,"bufferView":47,"count":26,"max":[0.3004031479358673,0.3694874346256256,0.024494409561157227],"min":[-0.3004031479358673,0.3155125677585602,-0.01449440885335207]},{"componentType":5126,"type":"VEC3","byteOffset":0,"bufferView":48,"count":26,"max":[0.8505281209945679,0.3244689106941223,-0.005500183906406164],"min":[0.2994718849658966,0.2505311071872711,-0.01949981600046158]},{"componentType":5126,"type":"VEC3","byteOffset":0,"bufferView":49,"count":26,"max":[1.2708925008773804,0.2594105899333954,-0.00550030916929245],"min":[0.8491074442863464,0.16558940708637238,-0.01949969120323658]}],"meshes":[{"name":"Body","extras":{},"primitives":[{"attributes":{"POSITION":1,"TEXCOORD_0":2},"indices":0,"mode":4,"material":0}]},{"name":"geometry_1","extras":{},"primitives":[{"attributes":{"POSITION":4,"TEXCOORD_0":5},"indices":3,"mode":4,"material":1}]},{"name":"geometry_2","extras":{},"primitives":[{"attributes":{"POSITION":7,"TEXCOORD_0":8},"indices":6,"mode":4,"material":1}]},{"name":"geometry_3","extras":{},"primitives":[{"attributes":{"POSITION":10,"TEXCOORD_0":11},"indices":9,"mode":4,"material":1}]},{"name":"geometry_4","extras":{},"primitives":[{"attributes":{"POSITION":13,"TEXCOORD_0":14},"indices":12,"mode":4,"material":2}]},{"name":"geometry_5","extras":{},"primitives":[{"attributes":{"POSITION":16,"TEXCOORD_0":17},"indices":15,"mode":4,"material":1}]},{"name":"geometry_6","extras":{},"primitives":[{"attributes":{"POSITION":18,"TEXCOORD_0":14},"indices":15,"mode":4,"material":2}]},{"name":"geometry_7","extras":{},"primitives":[{"attributes":{"POSITION":19,"TEXCOORD_0":17},"indices":12,"mode":4,"material":1}]},{"name":"geometry_8","extras":{"shape":"sphere","radius":1.0},"primitives":[{"attributes":{"POSITION":21},"indices":20,"mode":4,"material":3}]},{"name":"geometry_9","extras":{"shape":"sphere","radius":1.0},"primitives":[{"attributes":{"POSITION":22},"indices":20,"mode":4,"material":4}]},{"name":"geometry_10","extras":{"shape":"sphere","radius":1.0},"primitives":[{"attributes":{"POSITION":23},"indices":20,"mode":4,"material":3}]},{"name":"geometry_11","extras":{"shape":"sphere","radius":1.0},"primitives":[{"attributes":{"POSITION":24},"indices":20,"mode":4,"material":4}]},{"name":"geometry_12","extras":{"shape":"cylinder","height":0.14921796138535068,"radius":0.01,"processed":true},"primitives":[{"attributes":{"POSITION":26},"indices":25,"mode":4,"material":4}]},{"name":"geometry_13","extras":{"shape":"cylinder","height":0.18357559750685812,"radius":0.01,"processed":true},"primitives":[{"attributes":{"POSITION":27},"indices":25,"mode":4,"material":4}]},{"name":"geometry_14","extras":{"shape":"cylinder","height":0.16007810593582134,"radius":0.01,"processed":true},"primitives":[{"attributes":{"POSITION":28},"indices":25,"mode":4,"material":4}]},{"name":"geometry_15","extras":{"shape":"cylinder","height":0.2066301042926707,"radius":0.0075,"processed":true},"primitives":[{"attributes":{"POSITION":29},"indices":25,"mode":4,"material":5}]},{"name":"geometry_16","extras":{"shape":"cylinder","height":0.20408086632509184,"radius":0.0075,"processed":true},"primitives":[{"attributes":{"POSITION":30},"indices":25,"mode":4,"material":5}]},{"name":"geometry_17","extras":{"shape":"cylinder","height":0.23341165352226953,"radius":0.0075,"processed":true},"primitives":[{"attributes":{"POSITION":31},"indices":25,"mode":4,"material":5}]},{"name":"geometry_18","extras":{"shape":"cylinder","height":0.17385338650713714,"radius":0.0075,"processed":true},"primitives":[{"attributes":{"POSITION":32},"indices":25,"mode":4,"material":5}]},{"name":"geometry_19","extras":{"shape":"cylinder","height":0.5511805511808269,"radius":0.0045,"processed":true},"primitives":[{"attributes":{"POSITION":33},"indices":25,"mode":4,"material":5}]},{"name":"geometry_20","extras":{"shape":"cylinder","height":0.6024325688406961,"radius":0.0045,"processed":true},"primitives":[{"attributes":{"POSITION":34},"indices":25,"mode":4,"material":5}]},{"name":"geometry_21","extras":{"shape":"cylinder","height":0.5538501602419196,"radius":0.0045,"processed":true},"primitives":[{"attributes":{"POSITION":35},"indices":25,"mode":4,"material":5}]},{"name":"geometry_22","extras":{"shape":"cylinder","height":0.42854404674432245,"radius":0.0045,"processed":true},"primitives":[{"attributes":{"POSITION":36},"indices":25,"mode":4,"material":5}]},{"name":"geometry_23","extras":{"shape":"cylinder","height":0.14921796138535068,"radius":0.01,"processed":true},"primitives":[{"attributes":{"POSITION":37},"indices":25,"mode":4,"material":4}]},{"name":"geometry_24","extras":{"shape":"cylinder","height":0.18357559750685812,"radius":0.01,"processed":true},"primitives":[{"attributes":{"POSITION":38},"indices":25,"mode":4,"material":4}]},{"name":"geometry_25","extras":{"shape":"cylinder","height":0.16007810593582134,"radius":0.01,"processed":true},"primitives":[{"attributes":{"POSITION":39},"indices":25,"mode":4,"material":4}]},{"name":"geometry_26","extras":{"shape":"cylinder","height":0.2066301042926707,"radius":0.0075,"processed":true},"primitives":[{"attributes":{"POSITION":40},"indices":25,"mode":4,"material":5}]},{"name":"geometry_27","extras":{"shape":"cylinder","height":0.20408086632509184,"radius":0.0075,"processed":true},"primitives":[{"attributes":{"POSITION":41},"indices":25,"mode":4,"material":5}]},{"name":"geometry_28","extras":{"shape":"cylinder","height":0.23341165352226953,"radius":0.0075,"processed":true},"primitives":[{"attributes":{"POSITION":42},"indices":25,"mode":4,"material":5}]},{"name":"geometry_29","extras":{"shape":"cylinder","height":0.17385338650713714,"radius":0.0075,"processed":true},"primitives":[{"attributes":{"POSITION":43},"indices":25,"mode":4,"material":5}]},{"name":"geometry_30","extras":{"shape":"cylinder","height":0.5511805511808269,"radius":0.0045,"processed":true},"primitives":[{"attributes":{"POSITION":44},"indices":25,"mode":4,"material":5}]},{"name":"geometry_31","extras":{"shape":"cylinder","height":0.6024325688406961,"radius":0.0045,"processed":true},"primitives":[{"attributes":{"POSITION":45},"indices":25,"mode":4,"material":5}]},{"name":"geometry_32","extras":{"shape":"cylinder","height":0.5538501602419196,"radius":0.0045,"processed":true},"primitives":[{"attributes":{"POSITION":46},"indices":25,"mode":4,"material":5}]},{"name":"geometry_33","extras":{"shape":"cylinder","height":0.42854404674432245,"radius":0.0045,"processed":true},"primitives":[{"attributes":{"POSITION":47},"indices":25,"mode":4,"material":5}]}],"images":[{"bufferView":2,"mimeType":"image/png"},{"bufferView":6,"mimeType":"image/png"}],"textures":[{"source":0},{"source":1}],"materials":[{"pbrMetallicRoughness":{"baseColorTexture":{"index":0},"roughnessFactor":0.38,"metallicFactor":0.12},"name":"MahiMahi_Iridescent_Skin","doubleSided":false},{"pbrMetallicRoughness":{"baseColorTexture":{"index":1},"roughnessFactor":0.48,"metallicFactor":0.02},"name":"MahiMahi_Fins","alphaMode":"OPAQUE","doubleSided":false},{"pbrMetallicRoughness":{"baseColorFactor":[0.0196078431372549,0.2196078431372549,0.2901960784313726,1.0],"roughnessFactor":0.5,"metallicFactor":0.02},"name":"Dark_Teal_Fins","doubleSided":false},{"pbrMetallicRoughness":{"baseColorFactor":[0.6588235294117647,0.4588235294117647,0.050980392156862744,1.0],"roughnessFactor":0.3,"metallicFactor":0.15},"name":"Golden_Iris","doubleSided":false},{"pbrMetallicRoughness":{"baseColorFactor":[0.00784313725490196,0.011764705882352941,0.01568627450980392,1.0],"roughnessFactor":0.45,"metallicFactor":0.0},"name":"Black_Pupil_and_Lines","doubleSided":false},{"pbrMetallicRoughness":{"baseColorFactor":[0.01568627450980392,0.10980392156862745,0.1411764705882353,1.0],"roughnessFactor":0.55,"metallicFactor":0.0},"name":"Gill_and_Lateral_Lines","doubleSided":false}],"nodes":[{"name":"world","children":[1,2,3,4,5,6,7,8,9,10,11,12,13,14,15,16,17,18,19,20,21,22,23,24,25,26,27,28,29,30,31,32,33,34]},{"name":"Body","mesh":0,"matrix":[0.33,0.0,0.0,0.0,0.0,0.0,-0.33,0.0,0.0,0.33,0.0,0.0,0.0,0.0,0.0,1.0]},{"name":"Dorsal_Fin","mesh":1,"matrix":[0.33,0.0,0.0,0.0,0.0,0.0,-0.33,0.0,0.0,0.33,0.0,0.0,0.0,0.0,0.0,1.0]},{"name":"Anal_Fin","mesh":2,"matrix":[0.33,0.0,0.0,0.0,0.0,0.0,-0.33,0.0,0.0,0.33,0.0,0.0,0.0,0.0,0.0,1.0]},{"name":"Caudal_Fin","mesh":3,"matrix":[0.33,0.0,0.0,0.0,0.0,0.0,-0.33,0.0,0.0,0.33,0.0,0.0,0.0,0.0,0.0,1.0]},{"name":"Pectoral_Fin_R","mesh":4,"matrix":[0.33,0.0,0.0,0.0,0.0,0.0,-0.33,0.0,0.0,0.33,0.0,0.0,0.0,0.0,0.0,1.0]},{"name":"Pelvic_Fin_R","mesh":5,"matrix":[0.33,0.0,0.0,0.0,0.0,0.0,-0.33,0.0,0.0,0.33,0.0,0.0,0.0,0.0,0.0,1.0]},{"name":"Pectoral_Fin_L","mesh":6,"matrix":[0.33,0.0,0.0,0.0,0.0,0.0,-0.33,0.0,0.0,0.33,0.0,0.0,0.0,0.0,0.0,1.0]},{"name":"Pelvic_Fin_L","mesh":7,"matrix":[0.33,0.0,0.0,0.0,0.0,0.0,-0.33,0.0,0.0,0.33,0.0,0.0,0.0,0.0,0.0,1.0]},{"name":"Eye_Iris_-1","mesh":8,"matrix":[0.33,0.0,0.0,0.0,0.0,0.0,-0.33,0.0,0.0,0.33,0.0,0.0,0.0,0.0,0.0,1.0]},{"name":"Eye_Pupil_-1","mesh":9,"matrix":[0.33,0.0,0.0,0.0,0.0,0.0,-0.33,0.0,0.0,0.33,0.0,0.0,0.0,0.0,0.0,1.0]},{"name":"Eye_Iris_1","mesh":10,"matrix":[0.33,0.0,0.0,0.0,0.0,0.0,-0.33,0.0,0.0,0.33,0.0,0.0,0.0,0.0,0.0,1.0]},{"name":"Eye_Pupil_1","mesh":11,"matrix":[0.33,0.0,0.0,0.0,0.0,0.0,-0.33,0.0,0.0,0.33,0.0,0.0,0.0,0.0,0.0,1.0]},{"name":"Mouth_-1_0","mesh":12,"matrix":[0.33,0.0,0.0,0.0,0.0,0.0,-0.33,0.0,0.0,0.33,0.0,0.0,0.0,0.0,0.0,1.0]},{"name":"Mouth_-1_1","mesh":13,"matrix":[0.33,0.0,0.0,0.0,0.0,0.0,-0.33,0.0,0.0,0.33,0.0,0.0,0.0,0.0,0.0,1.0]},{"name":"Mouth_-1_2","mesh":14,"matrix":[0.33,0.0,0.0,0.0,0.0,0.0,-0.33,0.0,0.0,0.33,0.0,0.0,0.0,0.0,0.0,1.0]},{"name":"Gill_-1_0","mesh":15,"matrix":[0.33,0.0,0.0,0.0,0.0,0.0,-0.33,0.0,0.0,0.33,0.0,0.0,0.0,0.0,0.0,1.0]},{"name":"Gill_-1_1","mesh":16,"matrix":[0.33,0.0,0.0,0.0,0.0,0.0,-0.33,0.0,0.0,0.33,0.0,0.0,0.0,0.0,0.0,1.0]},{"name":"Gill_-1_2","mesh":17,"matrix":[0.33,0.0,0.0,0.0,0.0,0.0,-0.33,0.0,0.0,0.33,0.0,0.0,0.0,0.0,0.0,1.0]},{"name":"Gill_-1_3","mesh":18,"matrix":[0.33,0.0,0.0,0.0,0.0,0.0,-0.33,0.0,0.0,0.33,0.0,0.0,0.0,0.0,0.0,1.0]},{"name":"Lateral_Line_-1_0","mesh":19,"matrix":[0.33,0.0,0.0,0.0,0.0,0.0,-0.33,0.0,0.0,0.33,0.0,0.0,0.0,0.0,0.0,1.0]},{"name":"Lateral_Line_-1_1","mesh":20,"matrix":[0.33,0.0,0.0,0.0,0.0,0.0,-0.33,0.0,0.0,0.33,0.0,0.0,0.0,0.0,0.0,1.0]},{"name":"Lateral_Line_-1_2","mesh":21,"matrix":[0.33,0.0,0.0,0.0,0.0,0.0,-0.33,0.0,0.0,0.33,0.0,0.0,0.0,0.0,0.0,1.0]},{"name":"Lateral_Line_-1_3","mesh":22,"matrix":[0.33,0.0,0.0,0.0,0.0,0.0,-0.33,0.0,0.0,0.33,0.0,0.0,0.0,0.0,0.0,1.0]},{"name":"Mouth_1_0","mesh":23,"matrix":[0.33,0.0,0.0,0.0,0.0,0.0,-0.33,0.0,0.0,0.33,0.0,0.0,0.0,0.0,0.0,1.0]},{"name":"Mouth_1_1","mesh":24,"matrix":[0.33,0.0,0.0,0.0,0.0,0.0,-0.33,0.0,0.0,0.33,0.0,0.0,0.0,0.0,0.0,1.0]},{"name":"Mouth_1_2","mesh":25,"matrix":[0.33,0.0,0.0,0.0,0.0,0.0,-0.33,0.0,0.0,0.33,0.0,0.0,0.0,0.0,0.0,1.0]},{"name":"Gill_1_0","mesh":26,"matrix":[0.33,0.0,0.0,0.0,0.0,0.0,-0.33,0.0,0.0,0.33,0.0,0.0,0.0,0.0,0.0,1.0]},{"name":"Gill_1_1","mesh":27,"matrix":[0.33,0.0,0.0,0.0,0.0,0.0,-0.33,0.0,0.0,0.33,0.0,0.0,0.0,0.0,0.0,1.0]},{"name":"Gill_1_2","mesh":28,"matrix":[0.33,0.0,0.0,0.0,0.0,0.0,-0.33,0.0,0.0,0.33,0.0,0.0,0.0,0.0,0.0,1.0]},{"name":"Gill_1_3","mesh":29,"matrix":[0.33,0.0,0.0,0.0,0.0,0.0,-0.33,0.0,0.0,0.33,0.0,0.0,0.0,0.0,0.0,1.0]},{"name":"Lateral_Line_1_0","mesh":30,"matrix":[0.33,0.0,0.0,0.0,0.0,0.0,-0.33,0.0,0.0,0.33,0.0,0.0,0.0,0.0,0.0,1.0]},{"name":"Lateral_Line_1_1","mesh":31,"matrix":[0.33,0.0,0.0,0.0,0.0,0.0,-0.33,0.0,0.0,0.33,0.0,0.0,0.0,0.0,0.0,1.0]},{"name":"Lateral_Line_1_2","mesh":32,"matrix":[0.33,0.0,0.0,0.0,0.0,0.0,-0.33,0.0,0.0,0.33,0.0,0.0,0.0,0.0,0.0,1.0]},{"name":"Lateral_Line_1_3","mesh":33,"matrix":[0.33,0.0,0.0,0.0,0.0,0.0,-0.33,0.0,0.0,0.33,0.0,0.0,0.0,0.0,0.0,1.0]}],"buffers":[{"uri":"data:application/octet-stream;base64,","byteLength":1033876}],"bufferViews":[{"buffer":0,"byteOffset":0,"byteLength":165888},{"buffer":0,"byteOffset":165888,"byteLength":82968},{"buffer":0,"byteOffset":248856,"byteLength":603256},{"buffer":0,"byteOffset":852112,"byteLength":55312},{"buffer":0,"byteOffset":907424,"byteLength":720},{"buffer":0,"byteOffset":908144,"byteLength":384},{"buffer":0,"byteOffset":908528,"byteLength":69100},{"buffer":0,"byteOffset":977628,"byteLength":256},{"buffer":0,"byteOffset":977884,"byteLength":432},{"buffer":0,"byteOffset":978316,"byteLength":240},{"buffer":0,"byteOffset":978556,"byteLength":160},{"buffer":0,"byteOffset":978716,"byteLength":384},{"buffer":0,"byteOffset":979100,"byteLength":216},{"buffer":0,"byteOffset":979316,"byteLength":144},{"buffer":0,"byteOffset":979460,"byteLength":144},{"buffer":0,"byteOffset":979604,"byteLength":96},{"buffer":0,"byteOffset":979700,"byteLength":64},{"buffer":0,"byteOffset":979764,"byteLength":144},{"buffer":0,"byteOffset":979908,"byteLength":96},{"buffer":0,"byteOffset":980004,"byteLength":64},{"buffer":0,"byteOffset":980068,"byteLength":96},{"buffer":0,"byteOffset":980164,"byteLength":96},{"buffer":0,"byteOffset":980260,"byteLength":15360},{"buffer":0,"byteOffset":995620,"byteLength":7704},{"buffer":0,"byteOffset":1003324,"byteLength":7704},{"buffer":0,"byteOffset":1011028,"byteLength":7704},{"buffer":0,"byteOffset":1018732,"byteLength":7704},{"buffer":0,"byteOffset":1026436,"byteLength":576},{"buffer":0,"byteOffset":1027012,"byteLength":312},{"buffer":0,"byteOffset":1027324,"byteLength":312},{"buffer":0,"byteOffset":1027636,"byteLength":312},{"buffer":0,"byteOffset":1027948,"byteLength":312},{"buffer":0,"byteOffset":1028260,"byteLength":312},{"buffer":0,"byteOffset":1028572,"byteLength":312},{"buffer":0,"byteOffset":1028884,"byteLength":312},{"buffer":0,"byteOffset":1029196,"byteLength":312},{"buffer":0,"byteOffset":1029508,"byteLength":312},{"buffer":0,"byteOffset":1029820,"byteLength":312},{"buffer":0,"byteOffset":1030132,"byteLength":312},{"buffer":0,"byteOffset":1030444,"byteLength":312},{"buffer":0,"byteOffset":1030756,"byteLength":312},{"buffer":0,"byteOffset":1031068,"byteLength":312},{"buffer":0,"byteOffset":1031380,"byteLength":312},{"buffer":0,"byteOffset":1031692,"byteLength":312},{"buffer":0,"byteOffset":1032004,"byteLength":312},{"buffer":0,"byteOffset":1032316,"byteLength":312},{"buffer":0,"byteOffset":1032628,"byteLength":312},{"buffer":0,"byteOffset":1032940,"byteLength":312},{"buffer":0,"byteOffset":1033252,"byteLength":312},{"buffer":0,"byteOffset":1033564,"byteLength":312}]}