{"asset":{"version":"2.0","generator":"OpenAI procedural realistic Hanabukuro-saba model"},"scene":0,"scenes":[{"name":"花腹鯖","nodes":[0,1,2,3,4,5,6,7,8,9,10,11,12,13,14,15,16,17,18]}],"nodes":[{"name":"Body","mesh":0},{"name":"CaudalFin","mesh":1},{"name":"DorsalFin1","mesh":2},{"name":"DorsalFin2","mesh":3},{"name":"AnalFin","mesh":4},{"name":"PelvicFinLeft","mesh":5},{"name":"PelvicFinRight","mesh":6},{"name":"PectoralLeft","mesh":7},{"name":"PectoralRight","mesh":8},{"name":"DorsalFinlet1","mesh":9},{"name":"VentralFinlet1","mesh":10},{"name":"DorsalFinlet2","mesh":11},{"name":"VentralFinlet2","mesh":12},{"name":"DorsalFinlet3","mesh":13},{"name":"VentralFinlet3","mesh":14},{"name":"Eye_1","mesh":15},{"name":"Pupil_1","mesh":16},{"name":"Eye_-1","mesh":17},{"name":"Pupil_-1","mesh":18}],"meshes":[{"name":"Body","primitives":[{"attributes":{"POSITION":0,"NORMAL":1,"TEXCOORD_0":3},"indices":2,"material":0,"mode":4}]},{"name":"CaudalFin","primitives":[{"attributes":{"POSITION":4,"NORMAL":5},"indices":6,"material":1,"mode":4}]},{"name":"DorsalFin1","primitives":[{"attributes":{"POSITION":7,"NORMAL":8},"indices":9,"material":1,"mode":4}]},{"name":"DorsalFin2","primitives":[{"attributes":{"POSITION":10,"NORMAL":11},"indices":12,"material":1,"mode":4}]},{"name":"AnalFin","primitives":[{"attributes":{"POSITION":13,"NORMAL":14},"indices":15,"material":1,"mode":4}]},{"name":"PelvicFinLeft","primitives":[{"attributes":{"POSITION":16,"NORMAL":17},"indices":18,"material":1,"mode":4}]},{"name":"PelvicFinRight","primitives":[{"attributes":{"POSITION":19,"NORMAL":20},"indices":21,"material":1,"mode":4}]},{"name":"PectoralLeft","primitives":[{"attributes":{"POSITION":22,"NORMAL":23},"indices":24,"material":1,"mode":4}]},{"name":"PectoralRight","primitives":[{"attributes":{"POSITION":25,"NORMAL":26},"indices":27,"material":1,"mode":4}]},{"name":"DorsalFinlet1","primitives":[{"attributes":{"POSITION":28,"NORMAL":29},"indices":30,"material":1,"mode":4}]},{"name":"VentralFinlet1","primitives":[{"attributes":{"POSITION":31,"NORMAL":32},"indices":33,"material":1,"mode":4}]},{"name":"DorsalFinlet2","primitives":[{"attributes":{"POSITION":34,"NORMAL":35},"indices":36,"material":1,"mode":4}]},{"name":"VentralFinlet2","primitives":[{"attributes":{"POSITION":37,"NORMAL":38},"indices":39,"material":1,"mode":4}]},{"name":"DorsalFinlet3","primitives":[{"attributes":{"POSITION":40,"NORMAL":41},"indices":42,"material":1,"mode":4}]},{"name":"VentralFinlet3","primitives":[{"attributes":{"POSITION":43,"NORMAL":44},"indices":45,"material":1,"mode":4}]},{"name":"Eye_1","primitives":[{"attributes":{"POSITION":46,"NORMAL":47,"TEXCOORD_0":49},"indices":48,"material":2,"mode":4}]},{"name":"Pupil_1","primitives":[{"attributes":{"POSITION":50,"NORMAL":51,"TEXCOORD_0":53},"indices":52,"material":3,"mode":4}]},{"name":"Eye_-1","primitives":[{"attributes":{"POSITION":54,"NORMAL":55,"TEXCOORD_0":57},"indices":56,"material":2,"mode":4}]},{"name":"Pupil_-1","primitives":[{"attributes":{"POSITION":58,"NORMAL":59,"TEXCOORD_0":61},"indices":60,"material":3,"mode":4}]}],"buffers":[{"byteLength":349788,"uri":"data:application/octet-stream;base64,"}],"bufferViews":[{"buffer":0,"byteOffset":0,"byteLength":72600,"target":34962},{"buffer":0,"byteOffset":72600,"byteLength":72600,"target":34962},{"buffer":0,"byteOffset":145200,"byteLength":72576,"target":34963},{"buffer":0,"byteOffset":217776,"byteLength":48400,"target":34962},{"buffer":0,"byteOffset":266176,"byteLength":60,"target":34962},{"buffer":0,"byteOffset":266236,"byteLength":60,"target":34962},{"buffer":0,"byteOffset":266296,"byteLength":18,"target":34963},{"buffer":0,"byteOffset":266316,"byteLength":36,"target":34962},{"buffer":0,"byteOffset":266352,"byteLength":36,"target":34962},{"buffer":0,"byteOffset":266388,"byteLength":6,"target":34963},{"buffer":0,"byteOffset":266396,"byteLength":36,"target":34962},{"buffer":0,"byteOffset":266432,"byteLength":36,"target":34962},{"buffer":0,"byteOffset":266468,"byteLength":6,"target":34963},{"buffer":0,"byteOffset":266476,"byteLength":36,"target":34962},{"buffer":0,"byteOffset":266512,"byteLength":36,"target":34962},{"buffer":0,"byteOffset":266548,"byteLength":6,"target":34963},{"buffer":0,"byteOffset":266556,"byteLength":36,"target":34962},{"buffer":0,"byteOffset":266592,"byteLength":36,"target":34962},{"buffer":0,"byteOffset":266628,"byteLength":6,"target":34963},{"buffer":0,"byteOffset":266636,"byteLength":36,"target":34962},{"buffer":0,"byteOffset":266672,"byteLength":36,"target":34962},{"buffer":0,"byteOffset":266708,"byteLength":6,"target":34963},{"buffer":0,"byteOffset":266716,"byteLength":36,"target":34962},{"buffer":0,"byteOffset":266752,"byteLength":36,"target":34962},{"buffer":0,"byteOffset":266788,"byteLength":6,"target":34963},{"buffer":0,"byteOffset":266796,"byteLength":36,"target":34962},{"buffer":0,"byteOffset":266832,"byteLength":36,"target":34962},{"buffer":0,"byteOffset":266868,"byteLength":6,"target":34963},{"buffer":0,"byteOffset":266876,"byteLength":36,"target":34962},{"buffer":0,"byteOffset":266912,"byteLength":36,"target":34962},{"buffer":0,"byteOffset":266948,"byteLength":6,"target":34963},{"buffer":0,"byteOffset":266956,"byteLength":36,"target":34962},{"buffer":0,"byteOffset":266992,"byteLength":36,"target":34962},{"buffer":0,"byteOffset":267028,"byteLength":6,"target":34963},{"buffer":0,"byteOffset":267036,"byteLength":36,"target":34962},{"buffer":0,"byteOffset":267072,"byteLength":36,"target":34962},{"buffer":0,"byteOffset":267108,"byteLength":6,"target":34963},{"buffer":0,"byteOffset":267116,"byteLength":36,"target":34962},{"buffer":0,"byteOffset":267152,"byteLength":36,"target":34962},{"buffer":0,"byteOffset":267188,"byteLength":6,"target":34963},{"buffer":0,"byteOffset":267196,"byteLength":36,"target":34962},{"buffer":0,"byteOffset":267232,"byteLength":36,"target":34962},{"buffer":0,"byteOffset":267268,"byteLength":6,"target":34963},{"buffer":0,"byteOffset":267276,"byteLength":36,"target":34962},{"buffer":0,"byteOffset":267312,"byteLength":36,"target":34962},{"buffer":0,"byteOffset":267348,"byteLength":6,"target":34963},{"buffer":0,"byteOffset":267356,"byteLength":5712,"target":34962},{"buffer":0,"byteOffset":273068,"byteLength":5712,"target":34962},{"buffer":0,"byteOffset":278780,"byteLength":5376,"target":34963},{"buffer":0,"byteOffset":284156,"byteLength":3808,"target":34962},{"buffer":0,"byteOffset":287964,"byteLength":5712,"target":34962},{"buffer":0,"byteOffset":293676,"byteLength":5712,"target":34962},{"buffer":0,"byteOffset":299388,"byteLength":5376,"target":34963},{"buffer":0,"byteOffset":304764,"byteLength":3808,"target":34962},{"buffer":0,"byteOffset":308572,"byteLength":5712,"target":34962},{"buffer":0,"byteOffset":314284,"byteLength":5712,"target":34962},{"buffer":0,"byteOffset":319996,"byteLength":5376,"target":34963},{"buffer":0,"byteOffset":325372,"byteLength":3808,"target":34962},{"buffer":0,"byteOffset":329180,"byteLength":5712,"target":34962},{"buffer":0,"byteOffset":334892,"byteLength":5712,"target":34962},{"buffer":0,"byteOffset":340604,"byteLength":5376,"target":34963},{"buffer":0,"byteOffset":345980,"byteLength":3808,"target":34962}],"accessors":[{"bufferView":0,"componentType":5126,"count":6050,"type":"VEC3","min":[-1.2999999523162842,-0.22532668709754944,-0.37350791692733765],"max":[1.2999999523162842,0.22532668709754944,0.46594488620758057]},{"bufferView":1,"componentType":5126,"count":6050,"type":"VEC3","min":[-1.0,-0.9999971389770508,-0.9999988675117493],"max":[1.0,0.999997079372406,0.9999960660934448]},{"bufferView":2,"componentType":5123,"count":36288,"type":"SCALAR","min":[0.0],"max":[6049.0]},{"bufferView":3,"componentType":5126,"count":6050,"type":"VEC2","min":[0.0,0.0],"max":[1.0,0.9861111044883728]},{"bufferView":4,"componentType":5126,"count":5,"type":"VEC3","min":[-1.7799999713897705,0.0,-0.4300000071525574],"max":[-1.2000000476837158,0.0,0.46000000834465027]},{"bufferView":5,"componentType":5126,"count":5,"type":"VEC3","min":[0.0,-1.0,0.0],"max":[0.0,-1.0,0.0]},{"bufferView":6,"componentType":5123,"count":9,"type":"SCALAR","min":[0.0],"max":[4.0]},{"bufferView":7,"componentType":5126,"count":3,"type":"VEC3","min":[-0.25,0.0,0.38999998569488525],"max":[0.3799999952316284,0.0,0.7200000286102295]},{"bufferView":8,"componentType":5126,"count":3,"type":"VEC3","min":[0.0,-1.0,0.0],"max":[0.0,-1.0,0.0]},{"bufferView":9,"componentType":5123,"count":3,"type":"SCALAR","min":[0.0],"max":[2.0]},{"bufferView":10,"componentType":5126,"count":3,"type":"VEC3","min":[-0.8999999761581421,0.0,0.25],"max":[-0.41999998688697815,0.0,0.49000000953674316]},{"bufferView":11,"componentType":5126,"count":3,"type":"VEC3","min":[0.0,-1.0,0.0],"max":[0.0,-1.0,0.0]},{"bufferView":12,"componentType":5123,"count":3,"type":"SCALAR","min":[0.0],"max":[2.0]},{"bufferView":13,"componentType":5126,"count":3,"type":"VEC3","min":[-0.9599999785423279,0.0,-0.46000000834465027],"max":[-0.5199999809265137,0.0,-0.2199999988079071]},{"bufferView":14,"componentType":5126,"count":3,"type":"VEC3","min":[0.0,1.0,0.0],"max":[0.0,1.0,0.0]},{"bufferView":15,"componentType":5123,"count":3,"type":"SCALAR","min":[0.0],"max":[2.0]},{"bufferView":16,"componentType":5126,"count":3,"type":"VEC3","min":[-0.20000000298023224,0.10000000149011612,-0.4099999964237213],"max":[0.2800000011920929,0.30000001192092896,-0.20000000298023224]},{"bufferView":17,"componentType":5126,"count":3,"type":"VEC3","min":[0.10197848826646805,0.7286403179168701,0.6772618889808655],"max":[0.10197848826646805,0.7286403179168701,0.6772618889808655]},{"bufferView":18,"componentType":5123,"count":3,"type":"SCALAR","min":[0.0],"max":[2.0]},{"bufferView":19,"componentType":5126,"count":3,"type":"VEC3","min":[-0.20000000298023224,-0.30000001192092896,-0.4099999964237213],"max":[0.2800000011920929,-0.10000000149011612,-0.20000000298023224]},{"bufferView":20,"componentType":5126,"count":3,"type":"VEC3","min":[-0.10197848826646805,0.7286403179168701,-0.6772618889808655],"max":[-0.10197848826646805,0.7286403179168701,-0.6772618889808655]},{"bufferView":21,"componentType":5123,"count":3,"type":"SCALAR","min":[0.0],"max":[2.0]},{"bufferView":22,"componentType":5126,"count":3,"type":"VEC3","min":[-0.07999999821186066,0.18000000715255737,-0.18000000715255737],"max":[0.6299999952316284,0.5199999809265137,0.03999999910593033]},{"bufferView":23,"componentType":5126,"count":3,"type":"VEC3","min":[-0.09953470528125763,0.44876426458358765,0.8880897760391235],"max":[-0.09953470528125763,0.44876426458358765,0.8880897760391235]},{"bufferView":24,"componentType":5123,"count":3,"type":"SCALAR","min":[0.0],"max":[2.0]},{"bufferView":25,"componentType":5126,"count":3,"type":"VEC3","min":[-0.07999999821186066,-0.5199999809265137,-0.18000000715255737],"max":[0.6299999952316284,-0.18000000715255737,0.03999999910593033]},{"bufferView":26,"componentType":5126,"count":3,"type":"VEC3","min":[0.09953470528125763,0.44876426458358765,-0.8880897760391235],"max":[0.09953470528125763,0.44876426458358765,-0.8880897760391235]},{"bufferView":27,"componentType":5123,"count":3,"type":"SCALAR","min":[0.0],"max":[2.0]},{"bufferView":28,"componentType":5126,"count":3,"type":"VEC3","min":[-0.949999988079071,0.0,0.1899999976158142],"max":[-0.7799999713897705,0.0,0.3100000023841858]},{"bufferView":29,"componentType":5126,"count":3,"type":"VEC3","min":[0.0,-1.0,0.0],"max":[0.0,-1.0,0.0]},{"bufferView":30,"componentType":5123,"count":3,"type":"SCALAR","min":[0.0],"max":[2.0]},{"bufferView":31,"componentType":5126,"count":3,"type":"VEC3","min":[-0.949999988079071,0.0,-0.28999999165534973],"max":[-0.7799999713897705,0.0,-0.17000000178813934]},{"bufferView":32,"componentType":5126,"count":3,"type":"VEC3","min":[0.0,1.0,0.0],"max":[0.0,1.0,0.0]},{"bufferView":33,"componentType":5123,"count":3,"type":"SCALAR","min":[0.0],"max":[2.0]},{"bufferView":34,"componentType":5126,"count":3,"type":"VEC3","min":[-1.100000023841858,0.0,0.1899999976158142],"max":[-0.9300000071525574,0.0,0.3100000023841858]},{"bufferView":35,"componentType":5126,"count":3,"type":"VEC3","min":[0.0,-1.0,0.0],"max":[0.0,-1.0,0.0]},{"bufferView":36,"componentType":5123,"count":3,"type":"SCALAR","min":[0.0],"max":[2.0]},{"bufferView":37,"componentType":5126,"count":3,"type":"VEC3","min":[-1.100000023841858,0.0,-0.28999999165534973],"max":[-0.9300000071525574,0.0,-0.17000000178813934]},{"bufferView":38,"componentType":5126,"count":3,"type":"VEC3","min":[0.0,1.0,0.0],"max":[0.0,1.0,0.0]},{"bufferView":39,"componentType":5123,"count":3,"type":"SCALAR","min":[0.0],"max":[2.0]},{"bufferView":40,"componentType":5126,"count":3,"type":"VEC3","min":[-1.2300000190734863,0.0,0.1899999976158142],"max":[-1.059999942779541,0.0,0.3100000023841858]},{"bufferView":41,"componentType":5126,"count":3,"type":"VEC3","min":[0.0,-1.0,0.0],"max":[0.0,-1.0,0.0]},{"bufferView":42,"componentType":5123,"count":3,"type":"SCALAR","min":[0.0],"max":[2.0]},{"bufferView":43,"componentType":5126,"count":3,"type":"VEC3","min":[-1.2300000190734863,0.0,-0.28999999165534973],"max":[-1.059999942779541,0.0,-0.17000000178813934]},{"bufferView":44,"componentType":5126,"count":3,"type":"VEC3","min":[0.0,1.0,0.0],"max":[0.0,1.0,0.0]},{"bufferView":45,"componentType":5123,"count":3,"type":"SCALAR","min":[0.0],"max":[2.0]},{"bufferView":46,"componentType":5126,"count":476,"type":"VEC3","min":[0.878000020980835,0.15795999765396118,0.06800000369548798],"max":[0.9819999933242798,0.2120400071144104,0.1720000058412552]},{"bufferView":47,"componentType":5126,"count":476,"type":"VEC3","min":[-1.0,-1.0,-0.994960367679596],"max":[1.0,1.0,0.994960367679596]},{"bufferView":48,"componentType":5123,"count":2688,"type":"SCALAR","min":[0.0],"max":[475.0]},{"bufferView":49,"componentType":5126,"count":476,"type":"VEC2","min":[0.0,0.0],"max":[0.9642857313156128,1.0]},{"bufferView":50,"componentType":5126,"count":476,"type":"VEC3","min":[0.9120000004768372,0.2022400051355362,0.09200000017881393],"max":[0.9679999947547913,0.22575999796390533,0.14800000190734863]},{"bufferView":51,"componentType":5126,"count":476,"type":"VEC3","min":[-1.0,-1.0,-0.9948408603668213],"max":[1.0,1.0,0.9948408603668213]},{"bufferView":52,"componentType":5123,"count":2688,"type":"SCALAR","min":[0.0],"max":[475.0]},{"bufferView":53,"componentType":5126,"count":476,"type":"VEC2","min":[0.0,0.0],"max":[0.9642857313156128,1.0]},{"bufferView":54,"componentType":5126,"count":476,"type":"VEC3","min":[0.878000020980835,-0.2120400071144104,0.06800000369548798],"max":[0.9819999933242798,-0.15795999765396118,0.1720000058412552]},{"bufferView":55,"componentType":5126,"count":476,"type":"VEC3","min":[-1.0,-1.0,-0.994960367679596],"max":[1.0,1.0,0.994960367679596]},{"bufferView":56,"componentType":5123,"count":2688,"type":"SCALAR","min":[0.0],"max":[475.0]},{"bufferView":57,"componentType":5126,"count":476,"type":"VEC2","min":[0.0,0.0],"max":[0.9642857313156128,1.0]},{"bufferView":58,"componentType":5126,"count":476,"type":"VEC3","min":[0.9120000004768372,-0.22575999796390533,0.09200000017881393],"max":[0.9679999947547913,-0.2022400051355362,0.14800000190734863]},{"bufferView":59,"componentType":5126,"count":476,"type":"VEC3","min":[-1.0,-1.0,-0.9948408603668213],"max":[1.0,1.0,0.9948408603668213]},{"bufferView":60,"componentType":5123,"count":2688,"type":"SCALAR","min":[0.0],"max":[475.0]},{"bufferView":61,"componentType":5126,"count":476,"type":"VEC2","min":[0.0,0.0],"max":[0.9642857313156128,1.0]}],"images":[{"name":"花腹鯖寫實皮膚","uri":"data:image/png;base64,"}],"samplers":[{"magFilter":9729,"minFilter":9987,"wrapS":10497,"wrapT":10497}],"textures":[{"sampler":0,"source":0}],"materials":[{"name":"魚體_珠光銀藍","pbrMetallicRoughness":{"baseColorTexture":{"index":0},"metallicFactor":0.28,"roughnessFactor":0.31},"doubleSided":false},{"name":"魚鰭_半透明藍灰","pbrMetallicRoughness":{"baseColorFactor":[0.12,0.24,0.29,0.82],"metallicFactor":0.05,"roughnessFactor":0.48},"alphaMode":"BLEND","doubleSided":true},{"name":"眼球_銀灰","pbrMetallicRoughness":{"baseColorFactor":[0.66,0.74,0.74,1.0],"metallicFactor":0.35,"roughnessFactor":0.2}},{"name":"瞳孔_黑","pbrMetallicRoughness":{"baseColorFactor":[0.008,0.012,0.014,1.0],"metallicFactor":0.0,"roughnessFactor":0.08}}]}